<svg id="Group_1385" data-name="Group 1385" xmlns="http://www.w3.org/2000/svg" width="821.604" height="132.798" viewBox="0 0 821.604 132.798">
  <g id="Group_1383" data-name="Group 1383" transform="translate(0 0)">
    <g id="Group_1381" data-name="Group 1381" transform="translate(0 37.719)">
      <path id="Path_308" data-name="Path 308" d="M4.821,105.9A4.78,4.78,0,0,1,0,101.08v-83.1a4.526,4.526,0,0,1,2.269-3.97,4.353,4.353,0,0,1,4.538,0L79.126,53.151l38-21.554a4.767,4.767,0,0,1,4.821,8.225L81.678,62.793a4.353,4.353,0,0,1-4.538,0L9.359,25.641V101.08A4.726,4.726,0,0,1,4.821,105.9Z" transform="translate(0 -13.375)" fill="#e91c6a"/>
    </g>
    <g id="Group_1382" data-name="Group 1382">
      <path id="Path_309" data-name="Path 309" d="M152.58,132.873a4.78,4.78,0,0,1-4.821-4.821V13.192l-66.08,41.69a4.873,4.873,0,0,1-4.821,0L2.269,12.625A4.976,4.976,0,0,1,.567,6.1,4.714,4.714,0,0,1,7.09,4.4L79.126,45.239,150.311.713a4.873,4.873,0,0,1,4.821,0,4.891,4.891,0,0,1,2.552,4.254V128.619A4.981,4.981,0,0,1,152.58,132.873Z" transform="translate(0 -0.075)" fill="#e91c6a"/>
    </g>
  </g>
  <g id="Group_1384" data-name="Group 1384" transform="translate(260.917 29.282)">
    <path id="Path_310" data-name="Path 310" d="M92,14.67a4.056,4.056,0,0,1,3.97-3.97h.851a4.526,4.526,0,0,1,3.97,2.269L126.6,51.823l25.808-38.854a4.526,4.526,0,0,1,3.971-2.269h.851a4.056,4.056,0,0,1,3.97,3.97V79.9a4.115,4.115,0,1,1-8.225,0V25.731L129.719,59.764a3.7,3.7,0,0,1-3.4,1.985,4.325,4.325,0,0,1-3.4-1.985L99.941,25.731V79.616a3.97,3.97,0,1,1-7.941,0V14.67Z" transform="translate(-92 -9.849)" fill="#e91c6a"/>
    <path id="Path_311" data-name="Path 311" d="M129.4,14.754a4.115,4.115,0,1,1,8.225,0V79.983a4.362,4.362,0,0,1-4.254,4.254,4.121,4.121,0,0,1-3.97-4.254Z" transform="translate(-23.332 -10.216)" fill="#e91c6a"/>
    <path id="Path_312" data-name="Path 312" d="M145.2,14.954a4.321,4.321,0,0,1,3.97-4.254H176.4c8.792,0,16.165,2.552,20.7,7.374a20.145,20.145,0,0,1,5.672,14.18v.284c0,11.911-7.941,18.718-19.285,20.987L201.354,76.78a4.554,4.554,0,0,1,1.418,3.12,4.121,4.121,0,0,1-4.254,3.97c-1.7,0-2.836-.851-3.97-2.269l-20.42-26.375h-20.7v24.39a4.362,4.362,0,0,1-4.254,4.254,4.121,4.121,0,0,1-3.971-4.254Zm30.629,32.9c10.777,0,18.718-5.672,18.718-15.031v-.284c0-8.792-6.807-14.18-18.434-14.18h-22.4V47.852Z" transform="translate(5.678 -9.849)" fill="#e91c6a"/>
    <path id="Path_313" data-name="Path 313" d="M175.867,78.465l29.495-64.378c1.134-2.269,2.552-3.687,5.1-3.687h.284a5.193,5.193,0,0,1,5.1,3.687L245.35,78.465a7.215,7.215,0,0,1,.567,1.985,3.877,3.877,0,0,1-3.97,3.97,4.253,4.253,0,0,1-3.97-3.12l-7.657-16.733h-39.7L182.957,81.3c-.851,1.7-1.985,2.836-3.97,2.836a3.754,3.754,0,0,1-3.687-3.687A7.21,7.21,0,0,1,175.867,78.465ZM227.2,57.195,210.467,20.043,193.734,57.195Z" transform="translate(60.943 -10.4)" fill="#e91c6a"/>
    <path id="Path_314" data-name="Path 314" d="M233.393,54.842,206.451,17.407a4.791,4.791,0,0,1-.851-2.836,4.121,4.121,0,0,1,4.254-3.97c1.7,0,2.836,1.134,3.97,2.552l23.823,34.6,24.106-34.6c1.134-1.418,1.985-2.552,3.97-2.552a4.056,4.056,0,0,1,3.97,3.97,5.947,5.947,0,0,1-1.134,3.12L241.618,54.842V79.8a4.254,4.254,0,1,1-8.508,0V54.842Z" transform="translate(116.576 -10.033)" fill="#e91c6a"/>
    <path id="Path_315" data-name="Path 315" d="M233.967,78.465l29.495-64.378c1.134-2.269,2.552-3.687,5.1-3.687h.284a5.193,5.193,0,0,1,5.1,3.687L303.45,78.182a7.213,7.213,0,0,1,.567,1.985,3.877,3.877,0,0,1-3.97,3.97,4.253,4.253,0,0,1-3.97-3.12l-7.657-16.733h-39.7l-7.657,16.733c-.851,1.7-1.985,2.836-3.97,2.836a3.754,3.754,0,0,1-3.687-3.687A2.8,2.8,0,0,1,233.967,78.465Zm51.049-21.27L268.283,20.043,251.551,57.195Z" transform="translate(167.618 -10.4)" fill="#e91c6a"/>
    <path id="Path_316" data-name="Path 316" d="M269.2,14.754a4.115,4.115,0,1,1,8.224,0V43.4h41.69V14.754a4.362,4.362,0,0,1,4.254-4.254,4.121,4.121,0,0,1,3.97,4.254V79.983a4.115,4.115,0,1,1-8.225,0V51.056h-41.69V79.983a4.362,4.362,0,0,1-4.254,4.254,4.121,4.121,0,0,1-3.97-4.254Z" transform="translate(233.349 -10.216)" fill="#e91c6a"/>
  </g>
</svg>
